<?xml version="1.0" standalone="no"?>
<!DOCTYPE svg PUBLIC "-//W3C//DTD SVG 20010904//EN"
 "http://www.w3.org/TR/2001/REC-SVG-20010904/DTD/svg10.dtd">
<svg version="1.0" xmlns="http://www.w3.org/2000/svg"
 width="300.000000pt" height="154.000000pt" viewBox="0 0 300.000000 154.000000"
 preserveAspectRatio="xMidYMid meet">
<metadata>
Created by potrace 1.10, written by Peter Selinger 2001-2011
</metadata>
<g transform="translate(0.000000,154.000000) scale(0.100000,-0.100000)"
fill="#000000" stroke="none">
<path d="M605 1467 c-38 -38 -144 -140 -234 -226 -90 -86 -203 -193 -250 -239
-47 -45 -94 -88 -104 -95 -11 -7 -18 -21 -15 -34 3 -21 23 -3 498 451 47 44
117 111 157 149 63 60 68 67 45 65 -19 -1 -49 -23 -97 -71z"/>
<path d="M1405 1443 c-182 -27 -331 -187 -343 -367 -5 -86 10 -161 46 -229 27
-51 133 -157 157 -157 23 0 6 34 -31 59 -50 34 -103 113 -125 182 -56 179 21
356 193 446 48 25 63 28 158 28 93 0 112 -3 162 -27 148 -69 241 -248 209
-402 -20 -96 -56 -154 -145 -234 -20 -18 -36 -37 -36 -42 0 -22 32 -7 84 41
214 195 163 539 -98 663 -71 35 -161 50 -231 39z"/>
<path d="M1359 1356 c-168 -60 -262 -236 -215 -401 10 -32 25 -70 33 -84 25
-40 85 -101 95 -95 10 6 -7 40 -35 68 -11 12 -31 46 -46 76 -68 143 -3 318
145 391 68 34 188 34 255 1 107 -52 171 -154 171 -271 0 -80 -21 -134 -75
-199 -40 -47 -45 -62 -23 -62 20 0 81 77 108 136 17 37 22 67 22 124 -1 189
-143 331 -332 330 -37 -1 -83 -7 -103 -14z"/>
<path d="M1376 1286 c-56 -21 -105 -64 -138 -124 -41 -71 -42 -165 -4 -241 15
-28 31 -49 36 -46 9 6 0 48 -19 83 -19 35 -13 137 10 187 12 25 24 45 28 45 3
0 5 -155 5 -345 -2 -302 -4 -346 -18 -360 -21 -21 -20 -31 4 -55 27 -27 46
-25 66 5 15 23 15 27 -1 52 -16 24 -18 59 -17 382 1 348 1 356 21 370 l21 13
0 -288 c-1 -232 -3 -293 -15 -307 -26 -36 10 -83 50 -65 32 14 38 45 14 69
-18 18 -19 34 -17 312 l3 292 23 3 22 3 0 -232 c0 -204 -2 -235 -17 -251 -37
-41 21 -102 61 -63 20 20 20 39 1 59 -12 12 -15 54 -15 251 l0 236 23 -3 22
-3 3 -296 c2 -255 0 -298 -13 -309 -18 -15 -19 -42 -3 -58 38 -38 100 17 64
56 -15 17 -16 49 -14 306 3 270 4 286 20 274 16 -12 18 -45 19 -369 2 -320 0
-358 -15 -382 -13 -19 -15 -30 -7 -45 14 -26 38 -34 61 -22 32 17 36 62 5 74
-12 4 -14 67 -15 351 0 364 1 378 41 291 24 -54 24 -132 -1 -196 -11 -28 -20
-55 -20 -60 0 -22 18 -8 40 32 17 31 25 62 28 118 4 68 1 80 -25 130 -21 40
-44 66 -85 94 -49 34 -65 39 -125 42 -44 3 -82 -1 -107 -10z"/>
<path d="M2963 686 c-38 -25 -37 -11 -18 -218 34 -372 43 -460 50 -466 9 -9 4
267 -5 293 -7 18 -10 48 -26 215 -3 30 -7 71 -10 91 -5 36 8 61 37 71 6 2 10
11 8 20 -4 13 -8 12 -36 -6z"/>
<path d="M100 223 c-7 -21 -16 -42 -21 -48 -14 -14 -11 -35 5 -35 8 0 16 7 20
15 7 20 36 19 52 -2 23 -32 27 -4 7 49 -25 66 -47 73 -63 21z"/>
<path d="M181 253 c2 -5 13 -32 24 -61 11 -32 24 -52 32 -50 20 4 65 106 51
114 -13 8 -38 -23 -38 -48 0 -29 -16 -21 -26 14 -6 19 -17 34 -28 36 -10 2
-17 0 -15 -5z"/>
<path d="M317 208 c-15 -34 -21 -57 -15 -63 6 -7 14 -4 22 8 7 9 19 17 26 17
7 0 19 -8 26 -17 8 -12 16 -15 22 -8 11 11 -32 115 -47 115 -5 0 -21 -24 -34
-52z"/>
<path d="M434 246 c-3 -7 -4 -33 -2 -57 4 -55 26 -64 30 -12 l3 38 17 -37 c27
-60 48 -50 48 23 0 44 -3 60 -12 56 -8 -2 -12 -17 -10 -36 4 -39 -10 -35 -28
9 -13 31 -37 40 -46 16z"/>
<path d="M560 244 c0 -8 7 -14 16 -14 12 0 15 -9 12 -42 -2 -33 1 -43 12 -43
11 0 15 11 14 42 0 33 3 43 19 47 31 8 10 23 -33 23 -27 0 -40 -4 -40 -13z"/>
<path d="M677 254 c-4 -4 -7 -31 -7 -61 l0 -53 40 0 c29 0 40 4 40 15 0 9 -9
15 -25 15 -14 0 -25 5 -25 10 0 6 9 10 20 10 11 0 20 5 20 10 0 6 -9 10 -20
10 -30 0 -24 18 8 22 15 2 27 8 27 13 0 12 -67 19 -78 9z"/>
<path d="M842 244 c-27 -19 -29 -64 -4 -87 10 -9 33 -15 55 -14 34 1 37 3 37
29 0 24 -4 28 -26 28 -20 0 -25 -4 -20 -16 4 -11 1 -14 -12 -12 -11 2 -17 12
-17 28 0 22 4 25 33 22 36 -2 42 12 13 28 -26 13 -33 13 -59 -6z"/>
<path d="M987 218 c-8 -24 -18 -51 -22 -60 -5 -13 -2 -18 8 -18 8 0 17 7 21
15 7 20 25 19 48 -2 29 -26 33 -8 11 49 -26 68 -46 73 -66 16z"/>
<path d="M1100 199 c0 -44 3 -59 13 -56 6 2 11 12 11 21 -2 22 13 20 26 -4 6
-11 17 -20 25 -20 18 0 19 12 3 28 -9 9 -9 15 0 24 30 30 1 68 -52 68 -25 0
-26 -2 -26 -61z m60 15 c0 -9 -7 -14 -17 -12 -25 5 -28 28 -4 28 12 0 21 -6
21 -16z"/>
<path d="M1220 200 l0 -63 37 6 c42 7 49 13 58 47 8 35 -13 59 -58 67 l-37 6
0 -63z m65 0 c0 -32 -40 -37 -41 -5 -1 28 5 37 24 33 11 -2 17 -13 17 -28z"/>
<path d="M1341 200 l0 -61 42 3 c45 3 54 21 12 26 -30 4 -34 22 -5 22 11 0 20
5 20 10 0 6 -9 10 -20 10 -30 0 -24 18 8 22 42 5 32 23 -15 26 l-41 3 -1 -61z"/>
<path d="M1490 246 c0 -9 7 -16 15 -16 11 0 15 -12 15 -45 0 -33 4 -45 15 -45
11 0 15 12 15 45 0 34 4 45 16 45 35 0 4 25 -34 28 -33 2 -42 0 -42 -12z"/>
<path d="M1604 247 c-3 -8 -4 -34 -2 -58 3 -44 3 -44 41 -44 42 0 52 18 12 23
-30 4 -34 22 -5 22 11 0 20 5 20 10 0 6 -9 10 -20 10 -30 0 -24 18 8 22 40 4
33 23 -11 26 -25 2 -39 -1 -43 -11z"/>
<path d="M1732 244 c-56 -39 -3 -123 62 -98 30 12 18 34 -16 32 -29 -3 -33 0
-33 22 0 22 4 25 33 22 36 -2 42 12 13 28 -26 13 -33 13 -59 -6z"/>
<path d="M1840 200 c0 -47 3 -60 15 -60 9 0 15 9 15 25 0 18 5 25 20 25 15 0
20 -7 20 -25 0 -16 6 -25 15 -25 12 0 15 13 15 61 0 44 -3 60 -12 57 -7 -3
-14 -14 -16 -26 -5 -33 -42 -30 -42 3 0 16 -6 25 -15 25 -12 0 -15 -13 -15
-60z"/>
<path d="M1969 258 c0 -2 -1 -27 -2 -57 -2 -64 20 -84 25 -24 l3 38 20 -38
c28 -55 49 -46 49 22 1 64 -21 84 -26 24 l-3 -38 -15 30 c-8 17 -19 33 -25 37
-10 8 -24 10 -26 6z"/>
<path d="M2110 240 c-11 -11 -20 -29 -20 -40 0 -25 34 -60 58 -60 40 1 69 47
51 83 -23 42 -57 49 -89 17z m65 -40 c0 -18 -6 -26 -23 -28 -13 -2 -25 3 -28
12 -10 26 4 48 28 44 17 -2 23 -10 23 -28z"/>
<path d="M2230 200 l0 -60 40 0 c29 0 40 4 40 15 0 9 -9 15 -25 15 -23 0 -25
4 -25 45 0 33 -4 45 -15 45 -12 0 -15 -13 -15 -60z"/>
<path d="M2350 240 c-11 -11 -20 -28 -20 -38 0 -25 36 -62 60 -62 26 0 60 34
60 60 0 11 -9 29 -20 40 -11 11 -29 20 -40 20 -11 0 -29 -9 -40 -20z m65 -40
c0 -16 -6 -26 -19 -28 -25 -5 -39 12 -31 38 10 31 50 24 50 -10z"/>
<path d="M2492 244 c-26 -18 -30 -65 -6 -85 9 -7 34 -14 55 -14 36 0 39 2 39
27 0 23 -4 28 -26 28 -19 0 -25 -4 -20 -15 6 -18 -15 -20 -32 -3 -8 8 -8 17
-1 30 8 15 17 18 40 13 33 -8 40 9 10 25 -26 13 -33 13 -59 -6z"/>
<path d="M2609 256 c-2 -2 -2 -30 -1 -61 5 -73 26 -69 26 5 0 47 -10 70 -25
56z"/>
<path d="M2667 253 c-4 -3 -7 -30 -7 -60 l0 -53 40 0 c29 0 40 4 40 15 0 9 -9
15 -25 15 -14 0 -25 5 -25 10 0 6 9 10 20 10 11 0 20 5 20 10 0 6 -9 10 -20
10 -11 0 -20 5 -20 10 0 6 11 10 25 10 16 0 25 6 25 15 0 10 -10 15 -33 15
-19 0 -37 -3 -40 -7z"/>
<path d="M2788 249 c-30 -17 -22 -49 12 -55 17 -4 30 -11 30 -16 0 -5 -13 -7
-30 -3 -23 5 -30 3 -30 -9 0 -21 43 -31 69 -16 34 18 20 60 -21 60 -10 0 -18
5 -18 11 0 7 10 9 24 5 31 -8 43 9 17 23 -24 13 -31 13 -53 0z"/>
</g>
</svg>
